<svg id="Layer_1" xmlns="http://www.w3.org/2000/svg" viewBox="0 0 200 47"><style>.st0{fill:#F47920;} .st1{fill:#FDB913;} .st2{fill:#FFFFFF;}</style><path class="st0" d="M164.3 46.4c-1.9 0-4.4-1.4-5.4-3.1l-9.7-16.8c-1-1.7-1-4.5 0-6.1l9.7-16.8c1-1.7 3.3-3.1 5.4-3.1h19.3c1.9 0 4.4 1.4 5.4 3.1l9.7 16.8c1 1.7 1 4.5 0 6.1L189 43.3c-1 1.7-3.3 3.1-5.4 3.1h-19.3z"/><path class="st1" d="M167.1 4.5c-3.5-1.9-6.1-.4-6.1 3.6v31c0 4 2.8 5.5 6.1 3.6l26.8-15.5c3.5-1.9 3.5-5.3 0-7.2L167.1 4.5z"/><path class="st2" d="M199.1 20.1l-9.7-16.8c-1-1.9-3.7-3.3-5.9-3.3h-19.3c-2.2 0-4.7 1.5-5.9 3.3l-9.7 16.8c-1 1.9-1 4.9 0 6.8l9.7 16.8c1 1.9 3.7 3.3 5.9 3.3h19.3c2.2 0 4.7-1.5 5.9-3.3l9.7-16.8c1.2-1.9 1.2-4.9 0-6.8zM164.3 1.2h19.3c.8 0 1.8.3 2.6.8l-1.8 11.8-17-9.9c-1-.6-2-.9-3.1-.9-2.4 0-4.1 1.9-4.1 5v10l-11 4.2c.1-.6.3-1.2.5-1.5l9.7-16.8c.9-1.5 3.1-2.7 4.9-2.7zm-2.8 25.2l13.6 10.9-8.2 4.7c-.9.5-1.7.8-2.4.8-1.8 0-2.8-1.4-2.8-3.8V26.4h-.2zm2.8-22.2c.8 0 1.5.3 2.4.8l11 6.4-16.3 6.3V8.1c.1-2.5 1.1-3.9 2.9-3.9zm-2.8 14.6l17.7-6.8 5.1 2.9-2.9 18.6-5.1 2.9-14.7-11.8v-5.8zm21.1 14.1l2.7-17.2 8.2 4.7c1.4.9 2.3 1.9 2.3 3.1s-.8 2.2-2.3 3.1l-10.9 6.3zm-22.3-13.6v19.6c0 3.1 1.5 5 4.1 5 1 0 2-.3 3.1-.9l8.7-5 9.2 7.4c-.5.3-1.2.3-1.7.3h-19.3c-1.8 0-4-1.3-4.7-2.8L150 26.1c-.4-.8-.6-1.7-.6-2.7l10.9-4.1zM186.5 45l-9.3-7.4 17-9.9c1.8-1 2.8-2.6 2.8-4.1 0-1.5-1-3.1-2.8-4.1l-8.7-5 1.8-11.7c.5.4.8.8 1 1.3l9.7 16.8c.9 1.5.9 4 0 5.5l-9.7 16.8c-.3.5-.9 1.2-1.8 1.8zM87.7 29.1c0 2-.3 3.8-.9 5.4-.6 1.7-1.4 2.9-2.6 4.1-1.2 1.2-2.4 2-4 2.6-1.4.5-3.2.8-5.2.8s-3.7-.1-5.5-.4c-1.8-.3-3.2-.6-4.4-.9v-34c0-.6.5-1.3 1.2-1.4l3.3-.5c.6-.1 1.2.4 1.2 1v10.5c0 .6.5 1 1.2.8 0 0 .4-.1 1.3-.5 1-.3 2-.4 3.2-.4 1.8 0 3.3.3 4.7.9 1.4.6 2.6 1.5 3.5 2.7.9 1.2 1.7 2.6 2.2 4.1.6 1.5.8 3.2.8 5.2zm-6 0c0-2.4-.5-4.4-1.4-5.8-1-1.4-2.6-2.2-4.6-2.2-.9 0-1.8.1-2.7.4-.9.3-1.5.6-2 .9v13.2c0 .6.4 1.3.9 1.4l.6.1c.6.1 1.4.1 2.3.1 2.2 0 3.8-.8 5-2.2 1.4-1.4 1.9-3.4 1.9-5.9zM115 29.1c0 1.9-.3 3.7-.9 5.4-.5 1.7-1.4 2.9-2.4 4.1-1 1.2-2.3 2-3.8 2.7-1.5.6-3.1.9-4.9.9s-3.5-.4-4.9-.9c-1.4-.6-2.7-1.5-3.7-2.7-1-1.2-1.9-2.6-2.4-4.1-.6-1.7-.9-3.5-.9-5.4s.3-3.7.9-5.4c.6-1.7 1.4-2.9 2.4-4.1 1-1.2 2.3-2 3.8-2.7 1.4-.6 3.1-.9 4.9-.9s3.3.3 4.9.9c1.5.6 2.7 1.5 3.8 2.7 1 1.2 1.9 2.6 2.4 4.1.5 1.7.8 3.4.8 5.4zm-5.9 0c0-2.4-.5-4.5-1.5-5.9-1-1.4-2.6-2.2-4.5-2.2s-3.3.8-4.5 2.2c-1 1.4-1.5 3.5-1.5 5.9 0 2.6.5 4.5 1.5 6 1 1.4 2.6 2.2 4.5 2.2s3.5-.8 4.5-2.2c1-1.5 1.5-3.5 1.5-6zM119.7 18.7c0-.6.5-1.4 1.2-1.5 0 0 1.4-.4 3.2-.6 1.8-.3 3.7-.4 5.9-.4 2 0 3.7.3 5.1.9 1.4.5 2.4 1.3 3.3 2.3.8 1 1.4 2.2 1.7 3.6.4 1.4.5 2.9.5 4.6v12.8c0 .6-.5 1.3-1.3 1.3H136c-.6 0-1.3-.5-1.3-1.3V29.7v-2.4s0-1.3-.3-2.2c-.1-.9-.5-1.7-.9-2.3-.4-.6-.9-1-1.7-1.3-.6-.3-1.5-.4-2.6-.4-.8 0-1.5 0-2.3.1-.8.1-1.4.1-1.8.3v19c0 .6-.5 1.3-1.3 1.3h-3.3c-.6 0-1.3-.5-1.3-1.3V18.7h.5zM62.2 17.7c0-.5-.4-.9-.8-1h-.1c-.5-.1-1-.3-1.5-.3-.5-.1-1-.1-1.5-.3-.5 0-.9-.1-1.3-.1-2 0-3.8.1-5.5.5-1.7.4-2.9.8-2.9.8-.6.3-1.2.9-1.2 1.7v21.3c0 .6.5 1.3 1.3 1.3H52c.6 0 1.3-.5 1.3-1.3V21.4c.3-.1.8-.3 1.5-.4.8-.1 1.4-.1 2-.1 1.2 0 2 .1 2.9.3l.9.1c.6.1 1.3-.3 1.4-.9l.5-2.7c-.3.2-.3.1-.3 0zM40.9 21.9c-.4-1.3-.9-2.3-1.7-3.1-.8-.9-1.8-1.5-3.1-2s-2.9-.8-4.9-.8c-1.5 0-3.1.1-4.5.4-1.4.3-2 .4-2 .4-.6.1-1.2.9-1 1.5l.3 2v.1c.1.5.5.9 1 .9h.3c.5-.1 1-.3 1.5-.4 1.2-.3 2.3-.3 3.7-.3 1 0 1.8.1 2.4.4.6.3 1.2.6 1.5 1 .4.5.6 1 .9 1.5l.1.6c0 .6.1 1.7.1 2.2-.8-.1-1.5-.4-2.3-.4-.6-.1-1.4-.1-2-.1-1.4 0-2.7.1-4 .4-1.3.3-2.3.8-3.3 1.3-.9.6-1.7 1.4-2.3 2.4-.5 1-.9 2.2-.9 3.6 0 1.5.3 2.7.8 3.7s1.2 1.8 2 2.4c.9.6 1.9 1.2 3.2 1.4 1.3.3 2.6.4 4.1.4 2.3 0 4.2-.1 6.1-.4 1.8-.3 2.8-.5 2.8-.5.6-.1 1.2-.8 1.2-1.4v-14c.3-.6.2-2 0-3.2zM35.7 32v5.1c-.9.1-2.3.3-4.1.3-1.4 0-2.6-.3-3.5-.8s-1.3-1.4-1.3-2.8c0-.6.1-1.3.5-1.8.3-.5.8-.8 1.3-1 .5-.3 1.2-.4 1.8-.5.6-.1 1.3-.1 1.9-.1 1.2 0 2 .1 2.4.1.5.1 1 .6 1 1.2v.3zM19.3 39.7l-.4-2v-.3c-.1-.5-.5-.9-1-.9h-.3s-.3 0-.4.1c-.3.1-.6.1-1 .3-.9.1-1.9.3-2.9.3-2.7 0-4.5-.8-5.6-2.2C6.5 33.6 6 31.5 6 29.1c0-2.6.6-4.6 1.8-6 1.2-1.4 2.9-2.2 5.1-2.2.9 0 1.8.1 2.7.3.9.1 1.2.3 1.2.3.6.3 1.3-.1 1.4-.8l.6-2.6v-.3c0-.5-.3-.9-.8-1-1.8-.6-3.7-.9-5.8-.9-1.9 0-3.6.4-5.1 1-1.5.6-2.8 1.5-3.8 2.8-1 1.2-1.9 2.6-2.4 4.2S0 27.3 0 29.1c0 1.9.3 3.6.8 5.3.5 1.6 1.2 2.9 2.3 4 1 1.2 2.3 2 4 2.7 1.5.6 3.5 1 5.5 1 1.4 0 2.7-.1 4-.4 1.3-.3 1.8-.4 1.8-.4.7-.2 1.1-.8.9-1.6z"/></svg>